<?xml version="1.0" encoding="utf-8"?>
<svg viewBox="0 0 24 24" fill="none" xmlns="http://www.w3.org/2000/svg">
  <path fill="#c90025" fill-rule="evenodd" clip-rule="evenodd" d="M 1 8.5 C 1 5.215 3.313 2 7 2 C 8.709 2 9.929 2.481 10.865 3.208 C 11.309 3.553 11.68 3.949 11.997 4.336 C 12.311 3.95 12.679 3.554 13.119 3.21 C 14.053 2.48 15.275 2 17 2 C 20.729 2 23 5.22 23 8.5 C 23 11.841 21.326 14.699 19.229 16.93 C 17.128 19.163 14.523 20.857 12.447 21.894 C 12.166 22.035 6.872 19.163 4.772 16.93 C 2.674 14.699 1 11.841 1 8.5 Z" style=""/>
</svg>